<?xml version="1.0" encoding="UTF-8"?>
<!DOCTYPE svg PUBLIC "-//W3C//DTD SVG 1.1//EN" "http://www.w3.org/Graphics/SVG/1.1/DTD/svg11.dtd">
<svg xmlns="http://www.w3.org/2000/svg" version="1.1" width="1320px" height="1000px" style="shape-rendering:geometricPrecision; text-rendering:geometricPrecision; image-rendering:optimizeQuality; fill-rule:evenodd; clip-rule:evenodd" xmlns:xlink="http://www.w3.org/1999/xlink">
<g><path style="opacity:1" fill="#171717" d="M -0.5,-0.5 C 439.5,-0.5 879.5,-0.5 1319.5,-0.5C 1319.5,332.833 1319.5,666.167 1319.5,999.5C 879.5,999.5 439.5,999.5 -0.5,999.5C -0.5,666.167 -0.5,332.833 -0.5,-0.5 Z"/></g>
<g><path style="opacity:1" fill="#dddedf" d="M 297.5,366.5 C 307.5,366.5 317.5,366.5 327.5,366.5C 328.404,370.62 328.404,374.62 327.5,378.5C 317.833,378.5 308.167,378.5 298.5,378.5C 298.167,374.5 297.833,370.5 297.5,366.5 Z"/></g>
<g><path style="opacity:1" fill="#cfd0d0" d="M 327.5,366.5 C 333.191,366.98 338.858,367.646 344.5,368.5C 344.768,371.943 345.102,375.443 345.5,379C 344.756,380.039 343.756,380.539 342.5,380.5C 341.761,380.369 341.094,380.536 340.5,381C 342.782,383.397 344.116,386.231 344.5,389.5C 344.538,394.03 344.871,398.53 345.5,403C 344.906,403.464 344.239,403.631 343.5,403.5C 341.586,394.839 337.919,387.006 332.5,380C 330.753,379.648 329.086,379.148 327.5,378.5C 328.404,374.62 328.404,370.62 327.5,366.5 Z"/></g>
<g><path style="opacity:1" fill="#b4b5b6" d="M 286.5,367.5 C 286.567,371.591 286.233,375.591 285.5,379.5C 280.992,380.701 276.325,381.701 271.5,382.5C 270.5,382.5 269.5,382.5 268.5,382.5C 268.237,378.4 268.57,374.4 269.5,370.5C 275.141,369.372 280.808,368.372 286.5,367.5 Z"/></g>
<g><path style="opacity:1" fill="#a3a3a4" d="M 269.5,370.5 C 268.57,374.4 268.237,378.4 268.5,382.5C 269.5,382.5 270.5,382.5 271.5,382.5C 269.444,383.199 267.444,384.199 265.5,385.5C 269.134,391.79 273.134,397.79 277.5,403.5C 276.636,404.688 275.636,405.855 274.5,407C 275.598,409.115 275.598,411.282 274.5,413.5C 268.64,416.353 263.307,420.02 258.5,424.5C 257.343,421.974 257.343,419.307 258.5,416.5C 262.603,412.939 267.27,410.106 272.5,408C 267.243,401.238 262.576,394.071 258.5,386.5C 257.14,387.18 255.807,387.847 254.5,388.5C 252.974,387.895 251.974,386.729 251.5,385C 251.736,382.216 251.736,379.382 251.5,376.5C 257.432,374.3 263.432,372.3 269.5,370.5 Z"/></g>
<g><path style="opacity:1" fill="#b8b9ba" d="M 344.5,368.5 C 352.387,369.722 360.054,371.722 367.5,374.5C 368.089,378.971 367.423,382.971 365.5,386.5C 357.757,384.315 350.09,382.315 342.5,380.5C 343.756,380.539 344.756,380.039 345.5,379C 345.102,375.443 344.768,371.943 344.5,368.5 Z"/></g>
<g><path style="opacity:1" fill="#181818" d="M 298.5,378.5 C 308.167,378.5 317.833,378.5 327.5,378.5C 329.086,379.148 330.753,379.648 332.5,380C 337.919,387.006 341.586,394.839 343.5,403.5C 344.63,410.754 344.796,418.087 344,425.5C 343.722,426.416 343.222,427.082 342.5,427.5C 335.516,416.339 325.516,409.672 312.5,407.5C 308.71,406.178 304.71,405.178 300.5,404.5C 296.605,396.256 294.939,387.589 295.5,378.5C 296.5,378.5 297.5,378.5 298.5,378.5 Z"/></g>
<g><path style="opacity:1" fill="#1a1a1a" d="M 285.5,379.5 C 286.833,379.5 288.167,379.5 289.5,379.5C 289.108,391.1 291.775,401.933 297.5,412C 296.552,412.483 295.552,412.649 294.5,412.5C 291.808,413.009 289.308,414.009 287,415.5C 283.619,411.625 280.453,407.625 277.5,403.5C 273.134,397.79 269.134,391.79 265.5,385.5C 267.444,384.199 269.444,383.199 271.5,382.5C 276.325,381.701 280.992,380.701 285.5,379.5 Z"/></g>
<g><path style="opacity:1" fill="#181818" d="M 342.5,380.5 C 350.09,382.315 357.757,384.315 365.5,386.5C 373.586,390.044 381.253,394.378 388.5,399.5C 397.816,409.442 405.149,420.776 410.5,433.5C 403.848,434.477 397.181,434.477 390.5,433.5C 380.071,433.741 373.571,439.074 371,449.5C 371.724,462.656 368.391,474.656 361,485.5C 359.035,487.55 356.868,489.217 354.5,490.5C 349.422,492.384 344.422,494.217 339.5,496C 346.052,485.786 348.219,474.619 346,462.5C 344.833,457.818 343,453.484 340.5,449.5C 341.82,446.86 343.153,444.193 344.5,441.5C 349.074,433.36 351.074,424.527 350.5,415C 351.226,405.743 349.226,397.243 344.5,389.5C 344.116,386.231 342.782,383.397 340.5,381C 341.094,380.536 341.761,380.369 342.5,380.5 Z"/></g>
<g><path style="opacity:1" fill="#8c8c8c" d="M 251.5,376.5 C 251.736,379.382 251.736,382.216 251.5,385C 251.974,386.729 252.974,387.895 254.5,388.5C 248.427,392.045 242.427,395.878 236.5,400C 241.296,407.761 246.463,415.261 252,422.5C 254.037,420.294 256.203,418.294 258.5,416.5C 257.343,419.307 257.343,421.974 258.5,424.5C 256.554,428.317 253.554,430.15 249.5,430C 243.961,422.424 238.794,414.59 234,406.5C 233.184,405.177 232.017,404.511 230.5,404.5C 229.711,404.217 229.044,403.717 228.5,403C 228.183,398.976 228.517,394.81 229.5,390.5C 235.781,384.349 243.114,379.683 251.5,376.5 Z"/></g>
<g><path style="opacity:1" fill="#a1a2a2" d="M 367.5,374.5 C 375.391,377.112 382.724,380.779 389.5,385.5C 389.511,387.017 390.177,388.184 391.5,389C 391.5,391.667 391.5,394.333 391.5,397C 390.922,398.417 389.922,399.25 388.5,399.5C 381.253,394.378 373.586,390.044 365.5,386.5C 367.423,382.971 368.089,378.971 367.5,374.5 Z"/></g>
<g><path style="opacity:1" fill="#191919" d="M 258.5,416.5 C 256.203,418.294 254.037,420.294 252,422.5C 246.463,415.261 241.296,407.761 236.5,400C 242.427,395.878 248.427,392.045 254.5,388.5C 255.807,387.847 257.14,387.18 258.5,386.5C 262.576,394.071 267.243,401.238 272.5,408C 267.27,410.106 262.603,412.939 258.5,416.5 Z"/></g>
<g><path style="opacity:1" fill="#c0c1c2" d="M 344.5,389.5 C 349.226,397.243 351.226,405.743 350.5,415C 351.074,424.527 349.074,433.36 344.5,441.5C 345.398,437.233 345.731,433.067 345.5,429C 344.263,428.768 343.263,428.268 342.5,427.5C 343.222,427.082 343.722,426.416 344,425.5C 344.796,418.087 344.63,410.754 343.5,403.5C 344.239,403.631 344.906,403.464 345.5,403C 344.871,398.53 344.538,394.03 344.5,389.5 Z"/></g>
<g><path style="opacity:1" fill="#4b4b4b" d="M 1040.5,398.5 C 1031.5,398.5 1022.5,398.5 1013.5,398.5C 1013.5,401.167 1013.5,403.833 1013.5,406.5C 1012.52,403.713 1012.19,400.713 1012.5,397.5C 1022.01,397.173 1031.35,397.506 1040.5,398.5 Z"/></g>
<g><path style="opacity:1" fill="#5f5f5f" d="M 1113.5,512.5 C 1113.5,474.5 1113.5,436.5 1113.5,398.5C 1103.83,398.5 1094.17,398.5 1084.5,398.5C 1084.67,419.503 1084.5,440.503 1084,461.5C 1083.28,460.956 1082.78,460.289 1082.5,459.5C 1083.5,439.007 1083.83,418.34 1083.5,397.5C 1093.83,397.5 1104.17,397.5 1114.5,397.5C 1114.83,436.004 1114.5,474.337 1113.5,512.5 Z"/></g>
<g><path style="opacity:1" fill="#ececec" d="M 511.5,398.5 C 515.833,398.5 520.167,398.5 524.5,398.5C 524.5,436.5 524.5,474.5 524.5,512.5C 520.154,512.666 515.821,512.499 511.5,512C 506,506.5 500.5,501 495,495.5C 494.333,468.5 494.333,441.5 495,414.5C 501.003,409.663 506.503,404.33 511.5,398.5 Z"/></g>
<g><path style="opacity:1" fill="#ececec" d="M 529.5,398.5 C 546.17,398.333 562.837,398.5 579.5,399C 584.667,404.167 589.833,409.333 595,414.5C 595.667,440.167 595.667,465.833 595,491.5C 589.5,497 584,502.5 578.5,508C 581.667,511.167 584.833,514.333 588,517.5C 588.499,523.491 588.666,529.491 588.5,535.5C 580.16,535.666 571.827,535.5 563.5,535C 559.367,529.866 554.867,525.032 550,520.5C 549.503,517.854 549.336,515.187 549.5,512.5C 542.5,512.5 535.5,512.5 528.5,512.5C 528.5,504.167 528.5,495.833 528.5,487.5C 540.833,487.5 553.167,487.5 565.5,487.5C 566.497,466.006 566.831,444.34 566.5,422.5C 554.167,422.5 541.833,422.5 529.5,422.5C 529.5,414.5 529.5,406.5 529.5,398.5 Z"/></g>
<g><path style="opacity:1" fill="#ededed" d="M 648.5,398.5 C 652.833,398.5 657.167,398.5 661.5,398.5C 661.5,436.5 661.5,474.5 661.5,512.5C 651.833,512.5 642.167,512.5 632.5,512.5C 632.333,479.832 632.5,447.165 633,414.5C 638.37,409.298 643.536,403.965 648.5,398.5 Z"/></g>
<g><path style="opacity:1" fill="#7c7c7c" d="M 648.5,398.5 C 652.97,397.514 657.637,397.181 662.5,397.5C 662.832,436.004 662.499,474.337 661.5,512.5C 661.5,474.5 661.5,436.5 661.5,398.5C 657.167,398.5 652.833,398.5 648.5,398.5 Z"/></g>
<g><path style="opacity:1" fill="#ececec" d="M 666.5,398.5 C 683.17,398.333 699.837,398.5 716.5,399C 721.667,404.167 726.833,409.333 732,414.5C 732.5,447.165 732.667,479.832 732.5,512.5C 722.5,512.5 712.5,512.5 702.5,512.5C 702.5,501.833 702.5,491.167 702.5,480.5C 690.5,480.5 678.5,480.5 666.5,480.5C 666.5,472.167 666.5,463.833 666.5,455.5C 678.5,455.5 690.5,455.5 702.5,455.5C 702.5,444.833 702.5,434.167 702.5,423.5C 690.5,423.5 678.5,423.5 666.5,423.5C 666.5,415.167 666.5,406.833 666.5,398.5 Z"/></g>
<g><path style="opacity:1" fill="#eaeaea" d="M 763.5,398.5 C 772.839,398.334 782.173,398.5 791.5,399C 796.608,418.032 801.274,437.199 805.5,456.5C 800.845,475.456 796.345,494.456 792,513.5C 783.146,479.754 773.812,446.087 764,412.5C 763.501,407.845 763.334,403.179 763.5,398.5 Z"/></g>
<g><path style="opacity:1" fill="#eaeaea" d="M 823.5,398.5 C 830.532,398.17 837.532,398.503 844.5,399.5C 849.988,421.118 855.321,442.785 860.5,464.5C 866.304,442.952 871.637,421.286 876.5,399.5C 885.81,398.502 895.143,398.168 904.5,398.5C 904.666,403.844 904.499,409.177 904,414.5C 894.851,447.096 886.018,479.763 877.5,512.5C 867.833,512.5 858.167,512.5 848.5,512.5C 844.535,494.245 839.701,476.245 834,458.5C 829.538,476.218 824.872,493.885 820,511.5C 812.253,512.482 804.42,512.815 796.5,512.5C 805.5,474.5 814.5,436.5 823.5,398.5 Z"/></g>
<g><path style="opacity:1" fill="#636363" d="M 980.5,398.5 C 964.5,398.5 948.5,398.5 932.5,398.5C 932.5,405.833 932.5,413.167 932.5,420.5C 935.5,420.5 938.5,420.5 941.5,420.5C 941.831,443.673 941.498,466.673 940.5,489.5C 940.5,466.833 940.5,444.167 940.5,421.5C 937.5,421.5 934.5,421.5 931.5,421.5C 931.5,413.5 931.5,405.5 931.5,397.5C 948.009,397.17 964.342,397.504 980.5,398.5 Z"/></g>
<g><path style="opacity:1" fill="#ececec" d="M 980.5,398.5 C 980.5,405.833 980.5,413.167 980.5,420.5C 977.167,420.5 973.833,420.5 970.5,420.5C 970.5,443.5 970.5,466.5 970.5,489.5C 973.287,490.477 976.287,490.81 979.5,490.5C 979.5,497.833 979.5,505.167 979.5,512.5C 963.5,512.5 947.5,512.5 931.5,512.5C 931.5,504.833 931.5,497.167 931.5,489.5C 934.5,489.5 937.5,489.5 940.5,489.5C 941.498,466.673 941.831,443.673 941.5,420.5C 938.5,420.5 935.5,420.5 932.5,420.5C 932.5,413.167 932.5,405.833 932.5,398.5C 948.5,398.5 964.5,398.5 980.5,398.5 Z"/></g>
<g><path style="opacity:1" fill="#ececec" d="M 1040.5,398.5 C 1054.5,418.833 1068.5,439.167 1082.5,459.5C 1082.78,460.289 1083.28,460.956 1084,461.5C 1084.5,440.503 1084.67,419.503 1084.5,398.5C 1094.17,398.5 1103.83,398.5 1113.5,398.5C 1113.5,436.5 1113.5,474.5 1113.5,512.5C 1104.83,512.666 1096.16,512.5 1087.5,512C 1062.97,476.654 1038.3,441.487 1013.5,406.5C 1013.5,403.833 1013.5,401.167 1013.5,398.5C 1022.5,398.5 1031.5,398.5 1040.5,398.5 Z"/></g>
<g><path style="opacity:1" fill="#181818" d="M 230.5,404.5 C 232.017,404.511 233.184,405.177 234,406.5C 238.794,414.59 243.961,422.424 249.5,430C 253.554,430.15 256.554,428.317 258.5,424.5C 263.307,420.02 268.64,416.353 274.5,413.5C 281.771,415.22 283.605,419.22 280,425.5C 279.278,428.261 279.445,430.927 280.5,433.5C 268.499,440.504 261.166,450.837 258.5,464.5C 257.81,469.233 257.144,474.066 256.5,479C 247.473,483.513 238.473,488.013 229.5,492.5C 224.193,495.153 218.86,497.82 213.5,500.5C 208.121,477.109 208.287,453.776 214,430.5C 217.718,420.633 223.218,411.966 230.5,404.5 Z"/></g>
<g><path style="opacity:1" fill="#c8c9ca" d="M 297.5,366.5 C 297.833,370.5 298.167,374.5 298.5,378.5C 297.5,378.5 296.5,378.5 295.5,378.5C 294.939,387.589 296.605,396.256 300.5,404.5C 304.71,405.178 308.71,406.178 312.5,407.5C 310.897,407.312 309.563,407.812 308.5,409C 307.952,410.596 308.618,411.763 310.5,412.5C 308.326,412.08 306.326,412.08 304.5,412.5C 306.523,414.853 308.523,417.186 310.5,419.5C 309.711,419.783 309.044,420.283 308.5,421C 308.5,426.333 308.5,431.667 308.5,437C 309.044,437.717 309.711,438.217 310.5,438.5C 306.112,444.685 300.112,447.019 292.5,445.5C 292.736,443.951 292.736,442.451 292.5,441C 294.708,440.809 296.708,440.309 298.5,439.5C 305.607,437.538 308.44,432.871 307,425.5C 304.182,420.053 299.682,417.719 293.5,418.5C 292.516,416.402 292.849,414.402 294.5,412.5C 295.552,412.649 296.552,412.483 297.5,412C 291.775,401.933 289.108,391.1 289.5,379.5C 288.167,379.5 286.833,379.5 285.5,379.5C 286.233,375.591 286.567,371.591 286.5,367.5C 290.179,367.276 293.846,366.942 297.5,366.5 Z"/></g>
<g><path style="opacity:1" fill="#8a8a8b" d="M 389.5,385.5 C 399.726,392.387 407.393,401.387 412.5,412.5C 413.792,421.962 413.792,431.295 412.5,440.5C 403.159,440.333 393.826,440 384.5,439.5C 385.952,438.698 387.618,438.198 389.5,438C 390.38,436.644 390.714,435.144 390.5,433.5C 397.181,434.477 403.848,434.477 410.5,433.5C 405.149,420.776 397.816,409.442 388.5,399.5C 389.922,399.25 390.922,398.417 391.5,397C 391.5,394.333 391.5,391.667 391.5,389C 390.177,388.184 389.511,387.017 389.5,385.5 Z"/></g>
<g><path style="opacity:1" fill="#707070" d="M 229.5,390.5 C 228.517,394.81 228.183,398.976 228.5,403C 229.044,403.717 229.711,404.217 230.5,404.5C 223.218,411.966 217.718,420.633 214,430.5C 208.287,453.776 208.121,477.109 213.5,500.5C 218.86,497.82 224.193,495.153 229.5,492.5C 229.07,494.62 229.07,496.62 229.5,498.5C 224.563,501.306 219.563,504.139 214.5,507C 218.171,517.515 223.504,527.015 230.5,535.5C 229.711,535.783 229.044,536.283 228.5,537C 229.107,541.447 229.44,546.28 229.5,551.5C 219.084,542.417 211.417,531.417 206.5,518.5C 206.5,485.167 206.5,451.833 206.5,418.5C 211.8,407.239 219.467,397.906 229.5,390.5 Z"/></g>
<g><path style="opacity:1" fill="#b6b6b7" d="M 277.5,403.5 C 280.453,407.625 283.619,411.625 287,415.5C 289.308,414.009 291.808,413.009 294.5,412.5C 292.849,414.402 292.516,416.402 293.5,418.5C 287.011,421.489 284.844,426.489 287,433.5C 289.108,438.769 292.941,440.769 298.5,439.5C 296.708,440.309 294.708,440.809 292.5,441C 292.736,442.451 292.736,443.951 292.5,445.5C 288.673,443.754 285.007,441.754 281.5,439.5C 280.539,437.735 280.205,435.735 280.5,433.5C 279.445,430.927 279.278,428.261 280,425.5C 283.605,419.22 281.771,415.22 274.5,413.5C 275.598,411.282 275.598,409.115 274.5,407C 275.636,405.855 276.636,404.688 277.5,403.5 Z"/></g>
<g><path style="opacity:1" fill="#1b1b1b" d="M 310.5,412.5 C 324.199,415.708 334.199,423.542 340.5,436C 339.637,438.227 338.637,440.393 337.5,442.5C 336.998,443.521 336.332,443.688 335.5,443C 329.936,436.27 322.936,431.77 314.5,429.5C 313.711,425.926 312.378,422.592 310.5,419.5C 308.523,417.186 306.523,414.853 304.5,412.5C 306.326,412.08 308.326,412.08 310.5,412.5 Z"/></g>
<g><path style="opacity:1" fill="#4d4d4d" d="M 1014.5,414.5 C 1013.5,446.996 1013.17,479.662 1013.5,512.5C 1012.34,479.336 1012.17,446.003 1013,412.5C 1013.72,413.044 1014.22,413.711 1014.5,414.5 Z"/></g>
<g><path style="opacity:1" fill="#7d7d7d" d="M 412.5,412.5 C 418.625,420.861 422.625,430.194 424.5,440.5C 424.364,442.865 424.03,445.198 423.5,447.5C 423.747,448.713 424.414,449.38 425.5,449.5C 425.5,453.5 425.5,457.5 425.5,461.5C 421.5,461.5 417.5,461.5 413.5,461.5C 414.103,456.381 413.436,451.715 411.5,447.5C 411.993,445.194 412.326,442.861 412.5,440.5C 413.792,431.295 413.792,421.962 412.5,412.5 Z"/></g>
<g><path style="opacity:1" fill="#eaeaea" d="M 1014.5,414.5 C 1023.78,428.287 1033.28,441.953 1043,455.5C 1043.5,474.497 1043.67,493.497 1043.5,512.5C 1033.5,512.5 1023.5,512.5 1013.5,512.5C 1013.17,479.662 1013.5,446.996 1014.5,414.5 Z"/></g>
<g><path style="opacity:1" fill="#191919" d="M 293.5,418.5 C 299.682,417.719 304.182,420.053 307,425.5C 308.44,432.871 305.607,437.538 298.5,439.5C 292.941,440.769 289.108,438.769 287,433.5C 284.844,426.489 287.011,421.489 293.5,418.5 Z"/></g>
<g><path style="opacity:1" fill="#818281" d="M 980.5,420.5 C 977.713,421.477 974.713,421.81 971.5,421.5C 971.5,444.167 971.5,466.833 971.5,489.5C 971.167,489.5 970.833,489.5 970.5,489.5C 970.5,466.5 970.5,443.5 970.5,420.5C 973.833,420.5 977.167,420.5 980.5,420.5 Z"/></g>
<g><path style="opacity:1" fill="#646565" d="M 206.5,418.5 C 206.5,451.833 206.5,485.167 206.5,518.5C 204.376,514.06 202.543,509.393 201,504.5C 196.83,481.548 196.496,458.548 200,435.5C 201.309,429.393 203.475,423.726 206.5,418.5 Z"/></g>
<g><path style="opacity:1" fill="#aeaeae" d="M 529.5,398.5 C 529.5,406.5 529.5,414.5 529.5,422.5C 541.833,422.5 554.167,422.5 566.5,422.5C 566.831,444.34 566.497,466.006 565.5,487.5C 565.5,466.167 565.5,444.833 565.5,423.5C 553.167,423.5 540.833,423.5 528.5,423.5C 528.174,414.983 528.507,406.65 529.5,398.5 Z"/></g>
<g><path style="opacity:1" fill="#818282" d="M 227.5,421.5 C 237.482,420.982 241.649,425.648 240,435.5C 237.259,440.419 233.092,442.252 227.5,441C 221.891,437.723 220.058,432.89 222,426.5C 223.73,424.598 225.563,422.931 227.5,421.5 Z"/></g>
<g><path style="opacity:1" fill="#1c1c1c" d="M 228.5,427.5 C 234.488,427.664 235.821,430.164 232.5,435C 231.101,435.595 229.768,435.428 228.5,434.5C 227.286,432.141 227.286,429.808 228.5,427.5 Z"/></g>
<g><path style="opacity:1" fill="#d4d5d6" d="M 312.5,407.5 C 325.516,409.672 335.516,416.339 342.5,427.5C 343.263,428.268 344.263,428.768 345.5,429C 345.731,433.067 345.398,437.233 344.5,441.5C 343.153,444.193 341.82,446.86 340.5,449.5C 339.518,452.962 339.185,456.629 339.5,460.5C 334.769,447.939 325.936,439.606 313,435.5C 311.69,436.13 310.856,437.13 310.5,438.5C 309.711,438.217 309.044,437.717 308.5,437C 308.5,431.667 308.5,426.333 308.5,421C 309.044,420.283 309.711,419.783 310.5,419.5C 312.378,422.592 313.711,425.926 314.5,429.5C 322.936,431.77 329.936,436.27 335.5,443C 336.332,443.688 336.998,443.521 337.5,442.5C 338.637,440.393 339.637,438.227 340.5,436C 334.199,423.542 324.199,415.708 310.5,412.5C 308.618,411.763 307.952,410.596 308.5,409C 309.563,407.812 310.897,407.312 312.5,407.5 Z"/></g>
<g><path style="opacity:1" fill="#191919" d="M 339.5,460.5 C 343.101,487.294 331.767,503.961 305.5,510.5C 294.482,511.665 284.816,508.665 276.5,501.5C 262.191,486.107 260.025,469.107 270,450.5C 273.07,445.927 276.904,442.261 281.5,439.5C 285.007,441.754 288.673,443.754 292.5,445.5C 300.112,447.019 306.112,444.685 310.5,438.5C 310.856,437.13 311.69,436.13 313,435.5C 325.936,439.606 334.769,447.939 339.5,460.5 Z"/></g>
<g><path style="opacity:1" fill="#181818" d="M 384.5,439.5 C 393.826,440 403.159,440.333 412.5,440.5C 412.326,442.861 411.993,445.194 411.5,447.5C 410.908,450.127 410.575,452.794 410.5,455.5C 402.789,453.431 397.622,456.098 395,463.5C 393.859,470.084 394.526,476.417 397,482.5C 398.129,484.141 399.629,485.141 401.5,485.5C 403.292,486.309 405.292,486.809 407.5,487C 406.944,487.383 406.611,487.883 406.5,488.5C 401.604,492.58 395.937,494.913 389.5,495.5C 381.409,494.581 373.742,492.247 366.5,488.5C 374.221,475.953 378.054,462.286 378,447.5C 379.274,444.064 381.441,441.397 384.5,439.5 Z"/></g>
<g><path style="opacity:1" fill="#a9a9aa" d="M 390.5,433.5 C 390.714,435.144 390.38,436.644 389.5,438C 387.618,438.198 385.952,438.698 384.5,439.5C 381.441,441.397 379.274,444.064 378,447.5C 378.054,462.286 374.221,475.953 366.5,488.5C 373.742,492.247 381.409,494.581 389.5,495.5C 390.341,497.379 390.675,499.379 390.5,501.5C 388.533,501.261 386.699,501.594 385,502.5C 376.401,518.495 373.067,535.495 375,553.5C 374.167,557 372,559.167 368.5,560C 361.172,561.982 355.172,560.149 350.5,554.5C 351.468,552.393 351.802,550.059 351.5,547.5C 354.003,549.833 356.669,551.999 359.5,554C 362.993,555.004 366.159,554.504 369,552.5C 368.669,544.516 368.669,536.516 369,528.5C 371.518,518.61 375.018,509.11 379.5,500C 373.397,498.132 367.397,495.965 361.5,493.5C 359.473,494.513 357.473,495.513 355.5,496.5C 355.795,494.265 355.461,492.265 354.5,490.5C 356.868,489.217 359.035,487.55 361,485.5C 368.391,474.656 371.724,462.656 371,449.5C 373.571,439.074 380.071,433.741 390.5,433.5 Z"/></g>
<g><path style="opacity:1" fill="#6d6d6d" d="M 425.5,449.5 C 428.518,449.335 431.518,449.502 434.5,450C 435.667,450.5 436.5,451.333 437,452.5C 437.667,464.833 437.667,477.167 437,489.5C 434.567,491.626 431.734,492.959 428.5,493.5C 434.939,502.711 440.606,512.378 445.5,522.5C 440.878,534.154 432.211,539.154 419.5,537.5C 419.5,533.833 419.5,530.167 419.5,526.5C 418.5,526.5 417.5,526.5 416.5,526.5C 421.019,525.637 425.685,524.803 430.5,524C 431.516,523.481 432.182,522.647 432.5,521.5C 430.343,516.518 427.677,511.851 424.5,507.5C 425.493,498.682 425.827,489.682 425.5,480.5C 419.5,480.5 413.5,480.5 407.5,480.5C 405.585,480.784 403.919,480.451 402.5,479.5C 410.167,479.5 417.833,479.5 425.5,479.5C 425.5,473.5 425.5,467.5 425.5,461.5C 425.5,457.5 425.5,453.5 425.5,449.5 Z"/></g>
<g><path style="opacity:1" fill="#d7d8d9" d="M 307.5,448.5 C 321.72,452.926 327.887,462.592 326,477.5C 321.947,491.031 312.78,497.364 298.5,496.5C 297.952,495.312 297.619,494.145 297.5,493C 299.502,491.981 301.502,491.148 303.5,490.5C 314.388,488.941 320.055,482.607 320.5,471.5C 319.418,462.416 314.418,456.749 305.5,454.5C 303.031,453.683 300.365,453.183 297.5,453C 297.5,451.667 297.5,450.333 297.5,449C 300.817,448.502 304.15,448.335 307.5,448.5 Z"/></g>
<g><path style="opacity:1" fill="#a3a4a5" d="M 280.5,433.5 C 280.205,435.735 280.539,437.735 281.5,439.5C 276.904,442.261 273.07,445.927 270,450.5C 260.025,469.107 262.191,486.107 276.5,501.5C 275.711,501.783 275.044,502.283 274.5,503C 275.171,503.986 275.171,505.153 274.5,506.5C 270.88,504.715 268.047,502.048 266,498.5C 263.203,493.899 260.703,489.232 258.5,484.5C 258.251,478.034 258.251,471.368 258.5,464.5C 261.166,450.837 268.499,440.504 280.5,433.5 Z"/></g>
<g><path style="opacity:1" fill="#181818" d="M 305.5,454.5 C 314.418,456.749 319.418,462.416 320.5,471.5C 320.055,482.607 314.388,488.941 303.5,490.5C 291.219,490.386 284.553,484.219 283.5,472C 285.343,459.328 292.676,453.495 305.5,454.5 Z"/></g>
<g><path style="opacity:1" fill="#b7b8b8" d="M 307.5,448.5 C 304.15,448.335 300.817,448.502 297.5,449C 297.5,450.333 297.5,451.667 297.5,453C 300.365,453.183 303.031,453.683 305.5,454.5C 292.676,453.495 285.343,459.328 283.5,472C 284.553,484.219 291.219,490.386 303.5,490.5C 301.502,491.148 299.502,491.981 297.5,493C 297.619,494.145 297.952,495.312 298.5,496.5C 283.024,492.58 276.191,482.58 278,466.5C 283.037,452.245 292.87,446.245 307.5,448.5 Z"/></g>
<g><path style="opacity:1" fill="#8c8c8d" d="M 411.5,447.5 C 413.436,451.715 414.103,456.381 413.5,461.5C 409.563,461.207 405.73,461.54 402,462.5C 399.962,468.241 400.129,473.908 402.5,479.5C 403.919,480.451 405.585,480.784 407.5,480.5C 407.5,482.167 407.5,483.833 407.5,485.5C 405.5,485.5 403.5,485.5 401.5,485.5C 399.629,485.141 398.129,484.141 397,482.5C 394.526,476.417 393.859,470.084 395,463.5C 397.622,456.098 402.789,453.431 410.5,455.5C 410.575,452.794 410.908,450.127 411.5,447.5 Z"/></g>
<g><path style="opacity:1" fill="#171717" d="M 413.5,461.5 C 417.5,461.5 421.5,461.5 425.5,461.5C 425.5,467.5 425.5,473.5 425.5,479.5C 417.833,479.5 410.167,479.5 402.5,479.5C 400.129,473.908 399.962,468.241 402,462.5C 405.73,461.54 409.563,461.207 413.5,461.5 Z"/></g>
<g><path style="opacity:1" fill="#787979" d="M 219.5,470.5 C 227.244,470.048 229.577,473.215 226.5,480C 221.316,482.574 217.983,481.074 216.5,475.5C 217.092,473.577 218.092,471.911 219.5,470.5 Z"/></g>
<g><path style="opacity:1" fill="#7a7a7a" d="M 407.5,480.5 C 413.5,480.5 419.5,480.5 425.5,480.5C 425.827,489.682 425.493,498.682 424.5,507.5C 420.197,502.353 416.03,497.02 412,491.5C 410.961,492.71 409.794,493.71 408.5,494.5C 407.834,492.494 407.834,490.66 408.5,489C 407.906,488.536 407.239,488.369 406.5,488.5C 406.611,487.883 406.944,487.383 407.5,487C 405.292,486.809 403.292,486.309 401.5,485.5C 403.5,485.5 405.5,485.5 407.5,485.5C 407.5,483.833 407.5,482.167 407.5,480.5 Z"/></g>
<g><path style="opacity:1" fill="#181818" d="M 258.5,484.5 C 260.703,489.232 263.203,493.899 266,498.5C 268.047,502.048 270.88,504.715 274.5,506.5C 280.774,512.799 288.441,516.132 297.5,516.5C 298.833,516.5 300.167,516.5 301.5,516.5C 301.263,520.722 301.596,524.889 302.5,529C 302.164,530.03 301.497,530.53 300.5,530.5C 291.197,524.182 280.863,521.516 269.5,522.5C 265.148,522.846 261.481,524.512 258.5,527.5C 256.537,528.96 254.704,530.627 253,532.5C 250.375,538.243 247.875,543.91 245.5,549.5C 239.851,545.517 234.851,540.851 230.5,535.5C 223.504,527.015 218.171,517.515 214.5,507C 219.563,504.139 224.563,501.306 229.5,498.5C 239.602,494.615 249.269,489.948 258.5,484.5 Z"/></g>
<g><path style="opacity:1" fill="#8a8a8a" d="M 258.5,464.5 C 258.251,471.368 258.251,478.034 258.5,484.5C 249.269,489.948 239.602,494.615 229.5,498.5C 229.07,496.62 229.07,494.62 229.5,492.5C 238.473,488.013 247.473,483.513 256.5,479C 257.144,474.066 257.81,469.233 258.5,464.5 Z"/></g>
<g><path style="opacity:1" fill="#b7b8b7" d="M 970.5,489.5 C 970.833,489.5 971.167,489.5 971.5,489.5C 974.5,489.5 977.5,489.5 980.5,489.5C 980.825,497.352 980.492,505.018 979.5,512.5C 979.5,505.167 979.5,497.833 979.5,490.5C 976.287,490.81 973.287,490.477 970.5,489.5 Z"/></g>
<g><path style="opacity:1" fill="#8e8e8f" d="M 406.5,488.5 C 407.239,488.369 407.906,488.536 408.5,489C 407.834,490.66 407.834,492.494 408.5,494.5C 403.18,498.388 397.18,500.721 390.5,501.5C 390.675,499.379 390.341,497.379 389.5,495.5C 395.937,494.913 401.604,492.58 406.5,488.5 Z"/></g>
<g><path style="opacity:1" fill="#181818" d="M 424.5,507.5 C 427.677,511.851 430.343,516.518 432.5,521.5C 432.182,522.647 431.516,523.481 430.5,524C 425.685,524.803 421.019,525.637 416.5,526.5C 412.397,525.769 408.897,526.769 406,529.5C 405.667,545.5 405.333,561.5 405,577.5C 403.668,581.888 400.835,584.555 396.5,585.5C 390.862,586.22 385.196,586.553 379.5,586.5C 375.154,586.666 370.821,586.499 366.5,586C 358.669,581.644 351.002,577.144 343.5,572.5C 334.616,566.456 326.116,559.79 318,552.5C 317.333,548.833 317.333,545.167 318,541.5C 322.441,538.669 327.274,537.836 332.5,539C 338.372,544.376 344.372,549.543 350.5,554.5C 355.172,560.149 361.172,561.982 368.5,560C 372,559.167 374.167,557 375,553.5C 373.067,535.495 376.401,518.495 385,502.5C 386.699,501.594 388.533,501.261 390.5,501.5C 397.18,500.721 403.18,498.388 408.5,494.5C 409.794,493.71 410.961,492.71 412,491.5C 416.03,497.02 420.197,502.353 424.5,507.5 Z"/></g>
<g><path style="opacity:1" fill="#191919" d="M 351.5,547.5 C 345.664,542.5 339.664,537.667 333.5,533C 326.365,531.648 319.698,532.815 313.5,536.5C 312.446,536.32 311.446,535.987 310.5,535.5C 308.595,529.307 307.595,522.974 307.5,516.5C 324.374,511.985 340.374,505.318 355.5,496.5C 357.473,495.513 359.473,494.513 361.5,493.5C 367.397,495.965 373.397,498.132 379.5,500C 375.018,509.11 371.518,518.61 369,528.5C 368.669,536.516 368.669,544.516 369,552.5C 366.159,554.504 362.993,555.004 359.5,554C 356.669,551.999 354.003,549.833 351.5,547.5 Z"/></g>
<g><path style="opacity:1" fill="#b2b3b3" d="M 359.5,496.5 C 365.288,495.738 368.954,498.072 370.5,503.5C 369.189,509.643 365.523,511.809 359.5,510C 354.324,505.632 354.324,501.132 359.5,496.5 Z"/></g>
<g><path style="opacity:1" fill="#b9babb" d="M 276.5,501.5 C 284.816,508.665 294.482,511.665 305.5,510.5C 303.369,511.314 301.036,511.814 298.5,512C 298.786,513.388 298.452,514.888 297.5,516.5C 288.441,516.132 280.774,512.799 274.5,506.5C 275.171,505.153 275.171,503.986 274.5,503C 275.044,502.283 275.711,501.783 276.5,501.5 Z"/></g>
<g><path style="opacity:1" fill="#dedfe0" d="M 317.5,516.5 C 326.818,516.655 328.818,520.488 323.5,528C 314.096,528.141 312.096,524.308 317.5,516.5 Z"/></g>
<g><path style="opacity:1" fill="#878788" d="M 235.5,509.5 C 245.615,508.12 250.448,512.453 250,522.5C 245.057,530.324 239.057,531.324 232,525.5C 229.276,519.266 230.442,513.932 235.5,509.5 Z"/></g>
<g><path style="opacity:1" fill="#1a1a1a" d="M 238.5,515.5 C 240.144,515.286 241.644,515.62 243,516.5C 244.67,523.18 242.67,524.846 237,521.5C 236.252,519.16 236.752,517.16 238.5,515.5 Z"/></g>
<g><path style="opacity:1" fill="#b8b9ba" d="M 269.5,522.5 C 280.863,521.516 291.197,524.182 300.5,530.5C 299.532,532.607 299.198,534.941 299.5,537.5C 297.031,536.431 294.698,535.098 292.5,533.5C 291.77,535.341 291.103,537.175 290.5,539C 286.909,539.789 283.409,539.622 280,538.5C 279.505,540.473 279.338,542.473 279.5,544.5C 283.22,544.564 286.886,545.064 290.5,546C 291.833,551.667 291.833,557.333 290.5,563C 286.852,563.062 283.185,562.895 279.5,562.5C 279.5,564.167 279.5,565.833 279.5,567.5C 283.22,567.564 286.886,568.064 290.5,569C 291.833,574.667 291.833,580.333 290.5,586C 286.812,586.45 283.146,586.283 279.5,585.5C 279.5,587.167 279.5,588.833 279.5,590.5C 283.188,590.781 286.855,591.281 290.5,592C 291.833,598 291.833,604 290.5,610C 287.132,610.543 283.799,610.376 280.5,609.5C 280.5,607.833 280.5,606.167 280.5,604.5C 282.467,604.261 284.301,604.594 286,605.5C 286.801,602.633 286.634,599.966 285.5,597.5C 281.812,597.219 278.145,596.719 274.5,596C 273.167,590.333 273.167,584.667 274.5,579C 278.17,578.721 281.837,578.888 285.5,579.5C 285.5,577.5 285.5,575.5 285.5,573.5C 282.15,573.665 278.817,573.498 275.5,573C 275,572.5 274.5,572 274,571.5C 273.196,566.249 273.363,561.082 274.5,556C 278.148,555.938 281.815,556.105 285.5,556.5C 285.5,554.5 285.5,552.5 285.5,550.5C 281.753,550.608 278.086,550.108 274.5,549C 273.167,543.667 273.167,538.333 274.5,533C 278.188,532.55 281.854,532.717 285.5,533.5C 285.439,530.95 284.106,529.45 281.5,529C 277.514,528.501 273.514,528.334 269.5,528.5C 268.427,526.653 268.427,524.653 269.5,522.5 Z"/></g>
<g><path style="opacity:1" fill="#1d1d1d" d="M 269.5,528.5 C 273.514,528.334 277.514,528.501 281.5,529C 284.106,529.45 285.439,530.95 285.5,533.5C 281.854,532.717 278.188,532.55 274.5,533C 273.167,538.333 273.167,543.667 274.5,549C 278.086,550.108 281.753,550.608 285.5,550.5C 285.5,552.5 285.5,554.5 285.5,556.5C 281.815,556.105 278.148,555.938 274.5,556C 273.363,561.082 273.196,566.249 274,571.5C 274.5,572 275,572.5 275.5,573C 278.817,573.498 282.15,573.665 285.5,573.5C 285.5,575.5 285.5,577.5 285.5,579.5C 281.837,578.888 278.17,578.721 274.5,579C 273.167,584.667 273.167,590.333 274.5,596C 278.145,596.719 281.812,597.219 285.5,597.5C 285.5,599.5 285.5,601.5 285.5,603.5C 281.837,602.888 278.17,602.721 274.5,603C 273.167,608.667 273.167,614.333 274.5,620C 272.527,620.495 270.527,620.662 268.5,620.5C 269.119,609.444 267.452,598.777 263.5,588.5C 266.486,576.736 269.153,564.903 271.5,553C 269.833,545.998 268.166,538.998 266.5,532C 267.071,530.401 268.071,529.234 269.5,528.5 Z"/></g>
<g><path style="opacity:1" fill="#848485" d="M 416.5,526.5 C 417.5,526.5 418.5,526.5 419.5,526.5C 419.5,530.167 419.5,533.833 419.5,537.5C 417.68,551.465 416.847,565.798 417,580.5C 414.611,587.118 410.444,592.285 404.5,596C 397.88,597.137 391.214,597.637 384.5,597.5C 388.312,596.676 392.312,596.176 396.5,596C 397.598,592.55 397.598,589.05 396.5,585.5C 400.835,584.555 403.668,581.888 405,577.5C 405.333,561.5 405.667,545.5 406,529.5C 408.897,526.769 412.397,525.769 416.5,526.5 Z"/></g>
<g><path style="opacity:1" fill="#1d1d1d" d="M 299.5,537.5 C 303.277,539.722 307.277,541.389 311.5,542.5C 311.5,544.167 311.5,545.833 311.5,547.5C 307.775,547.405 304.109,547.238 300.5,547C 300,547.5 299.5,548 299,548.5C 298.333,553.5 298.333,558.5 299,563.5C 299.5,564 300,564.5 300.5,565C 303.833,565.333 307.167,565.667 310.5,566C 311.406,567.699 311.739,569.533 311.5,571.5C 307.51,570.81 303.51,570.643 299.5,571C 298.167,576.667 298.167,582.333 299.5,588C 303.44,589.015 307.44,589.515 311.5,589.5C 311.5,591.167 311.5,592.833 311.5,594.5C 307.239,593.949 303.072,593.949 299,594.5C 298.333,600.167 298.333,605.833 299,611.5C 302.049,612.61 305.216,613.277 308.5,613.5C 309.5,613.5 310.5,613.5 311.5,613.5C 311.5,615.167 311.5,616.833 311.5,618.5C 309.167,618.5 306.833,618.5 304.5,618.5C 303.054,617.387 301.387,617.22 299.5,618C 298.748,618.671 298.414,619.504 298.5,620.5C 295.789,620.815 293.456,620.148 291.5,618.5C 291.672,617.508 291.338,616.842 290.5,616.5C 288.393,615.532 286.059,615.198 283.5,615.5C 282.432,614.566 281.099,614.232 279.5,614.5C 279.216,612.585 279.549,610.919 280.5,609.5C 283.799,610.376 287.132,610.543 290.5,610C 291.833,604 291.833,598 290.5,592C 286.855,591.281 283.188,590.781 279.5,590.5C 279.5,588.833 279.5,587.167 279.5,585.5C 283.146,586.283 286.812,586.45 290.5,586C 291.833,580.333 291.833,574.667 290.5,569C 286.886,568.064 283.22,567.564 279.5,567.5C 279.5,565.833 279.5,564.167 279.5,562.5C 283.185,562.895 286.852,563.062 290.5,563C 291.833,557.333 291.833,551.667 290.5,546C 286.886,545.064 283.22,544.564 279.5,544.5C 279.338,542.473 279.505,540.473 280,538.5C 283.409,539.622 286.909,539.789 290.5,539C 291.103,537.175 291.77,535.341 292.5,533.5C 294.698,535.098 297.031,536.431 299.5,537.5 Z"/></g>
<g><path style="opacity:1" fill="#8e8e8f" d="M 258.5,527.5 C 257.3,530.969 257.3,534.302 258.5,537.5C 258.5,537.833 258.5,538.167 258.5,538.5C 257.662,538.842 257.328,539.508 257.5,540.5C 255.896,541.287 255.229,542.62 255.5,544.5C 258.059,544.802 260.393,544.468 262.5,543.5C 263.043,543.56 263.376,543.893 263.5,544.5C 261.577,545.308 259.577,545.808 257.5,546C 259.708,546.191 261.708,546.691 263.5,547.5C 260.167,547.5 256.833,547.5 253.5,547.5C 253.5,548.5 253.5,549.5 253.5,550.5C 257.167,550.5 260.833,550.5 264.5,550.5C 260.232,550.869 256.232,551.869 252.5,553.5C 252.5,554.833 252.5,556.167 252.5,557.5C 251.494,558.396 251.494,559.062 252.5,559.5C 252.5,560.833 252.5,562.167 252.5,563.5C 255.833,563.5 259.167,563.5 262.5,563.5C 259.167,564.167 255.833,564.833 252.5,565.5C 252.5,567.167 252.5,568.833 252.5,570.5C 252.5,571.167 252.5,571.833 252.5,572.5C 252.5,574.167 252.5,575.833 252.5,577.5C 251.494,578.396 251.494,579.062 252.5,579.5C 252.5,580.833 252.5,582.167 252.5,583.5C 254.5,583.5 256.5,583.5 258.5,583.5C 256.708,584.309 254.708,584.809 252.5,585C 254.577,585.192 256.577,585.692 258.5,586.5C 258.376,587.107 258.043,587.44 257.5,587.5C 256.081,586.549 254.415,586.216 252.5,586.5C 252.5,587.5 252.5,588.5 252.5,589.5C 254.167,589.5 255.833,589.5 257.5,589.5C 256.048,590.302 254.382,590.802 252.5,591C 254.708,591.191 256.708,591.691 258.5,592.5C 256.5,592.5 254.5,592.5 252.5,592.5C 252.5,593.833 252.5,595.167 252.5,596.5C 252.5,597.167 252.5,597.833 252.5,598.5C 252.5,599.833 252.5,601.167 252.5,602.5C 255.5,602.5 258.5,602.5 261.5,602.5C 258.695,603.319 255.695,603.819 252.5,604C 255.695,604.181 258.695,604.681 261.5,605.5C 262.434,606.568 262.768,607.901 262.5,609.5C 259.15,609.335 255.817,609.502 252.5,610C 256.025,610.179 259.359,610.679 262.5,611.5C 259.167,611.5 255.833,611.5 252.5,611.5C 252.5,612.833 252.5,614.167 252.5,615.5C 252.5,616.167 252.5,616.833 252.5,617.5C 252.5,618.5 252.5,619.5 252.5,620.5C 255.833,620.5 259.167,620.5 262.5,620.5C 262.5,619.5 262.5,618.5 262.5,617.5C 263.434,618.568 263.768,619.901 263.5,621.5C 259.833,621.5 256.167,621.5 252.5,621.5C 252.5,625.167 252.5,628.833 252.5,632.5C 257.833,632.5 263.167,632.5 268.5,632.5C 274.5,632.5 280.5,632.5 286.5,632.5C 292.167,632.5 297.833,632.5 303.5,632.5C 317.167,632.5 330.833,632.5 344.5,632.5C 348.833,632.5 353.167,632.5 357.5,632.5C 320.002,633.664 282.336,633.831 244.5,633C 243.333,631.833 242.167,630.667 241,629.5C 240.667,606.5 240.333,583.5 240,560.5C 236.308,557.635 232.808,554.635 229.5,551.5C 229.44,546.28 229.107,541.447 228.5,537C 229.044,536.283 229.711,535.783 230.5,535.5C 234.851,540.851 239.851,545.517 245.5,549.5C 247.875,543.91 250.375,538.243 253,532.5C 254.704,530.627 256.537,528.96 258.5,527.5 Z"/></g>
<g><path style="opacity:1" fill="#242424" d="M 258.5,538.5 C 258.5,538.167 258.5,537.833 258.5,537.5C 260.306,534.662 261.306,534.995 261.5,538.5C 260.5,538.5 259.5,538.5 258.5,538.5 Z"/></g>
<g><path style="opacity:1" fill="#b5b5b6" d="M 356.5,535.5 C 362.33,535.161 364.83,537.827 364,543.5C 360.619,547.485 357.286,547.485 354,543.5C 353.018,540.225 353.851,537.559 356.5,535.5 Z"/></g>
<g><path style="opacity:1" fill="#1f1f1f" d="M 257.5,540.5 C 259.167,540.5 260.833,540.5 262.5,540.5C 262.5,541.5 262.5,542.5 262.5,543.5C 260.393,544.468 258.059,544.802 255.5,544.5C 255.229,542.62 255.896,541.287 257.5,540.5 Z"/></g>
<g><path style="opacity:1" fill="#1b1b1b" d="M 263.5,547.5 C 264.404,548.209 264.737,549.209 264.5,550.5C 260.833,550.5 257.167,550.5 253.5,550.5C 253.5,549.5 253.5,548.5 253.5,547.5C 256.833,547.5 260.167,547.5 263.5,547.5 Z"/></g>
<g><path style="opacity:1" fill="#181818" d="M 252.5,553.5 C 256.5,553.5 260.5,553.5 264.5,553.5C 264.5,554.833 264.5,556.167 264.5,557.5C 260.5,557.5 256.5,557.5 252.5,557.5C 252.5,556.167 252.5,554.833 252.5,553.5 Z"/></g>
<g><path style="opacity:1" fill="#202020" d="M 252.5,559.5 C 256.226,559.177 259.893,559.511 263.5,560.5C 262.873,561.417 262.539,562.417 262.5,563.5C 259.167,563.5 255.833,563.5 252.5,563.5C 252.5,562.167 252.5,560.833 252.5,559.5 Z"/></g>
<g><path style="opacity:1" fill="#1b1b1b" d="M 331.5,586.5 C 332.08,593.444 329.913,599.444 325,604.5C 324.501,609.823 324.334,615.156 324.5,620.5C 322.167,620.5 319.833,620.5 317.5,620.5C 317.665,616.818 317.499,613.152 317,609.5C 314.174,607.66 311.007,606.994 307.5,607.5C 306.791,606.596 305.791,606.263 304.5,606.5C 304.5,604.5 304.5,602.5 304.5,600.5C 308.163,601.112 311.83,601.279 315.5,601C 316,600.5 316.5,600 317,599.5C 317.667,594.833 317.667,590.167 317,585.5C 316.5,585 316,584.5 315.5,584C 311.809,583.58 308.142,583.08 304.5,582.5C 304.338,580.473 304.505,578.473 305,576.5C 308.744,577.626 312.577,577.793 316.5,577C 317.635,572.252 317.802,567.419 317,562.5C 313.162,560.493 308.995,559.493 304.5,559.5C 304.5,557.5 304.5,555.5 304.5,553.5C 307.166,553.933 309.832,554.433 312.5,555C 317.795,560.307 323.461,565.141 329.5,569.5C 330.167,575.319 330.833,580.986 331.5,586.5 Z"/></g>
<g><path style="opacity:1" fill="#d0d1d2" d="M 340.5,449.5 C 343,453.484 344.833,457.818 346,462.5C 348.219,474.619 346.052,485.786 339.5,496C 344.422,494.217 349.422,492.384 354.5,490.5C 355.461,492.265 355.795,494.265 355.5,496.5C 340.374,505.318 324.374,511.985 307.5,516.5C 307.595,522.974 308.595,529.307 310.5,535.5C 311.446,535.987 312.446,536.32 313.5,536.5C 319.698,532.815 326.365,531.648 333.5,533C 339.664,537.667 345.664,542.5 351.5,547.5C 351.802,550.059 351.468,552.393 350.5,554.5C 344.372,549.543 338.372,544.376 332.5,539C 327.274,537.836 322.441,538.669 318,541.5C 317.333,545.167 317.333,548.833 318,552.5C 326.116,559.79 334.616,566.456 343.5,572.5C 344.656,575.016 345.323,577.349 345.5,579.5C 342.5,579.5 339.5,579.5 336.5,579.5C 336.5,580.833 336.5,582.167 336.5,583.5C 339.5,584.167 342.5,584.833 345.5,585.5C 342.5,585.5 339.5,585.5 336.5,585.5C 336.232,587.099 336.566,588.432 337.5,589.5C 339.969,590.317 342.635,590.817 345.5,591C 342.635,591.183 339.969,591.683 337.5,592.5C 337.5,593.833 337.5,595.167 337.5,596.5C 339.833,596.5 342.167,596.5 344.5,596.5C 344.5,597.167 344.5,597.833 344.5,598.5C 341.428,598.183 338.428,598.516 335.5,599.5C 335.137,600.183 334.804,600.85 334.5,601.5C 334.167,601.5 333.833,601.5 333.5,601.5C 333.832,590.147 333.499,578.814 332.5,567.5C 331.656,573.245 331.323,579.578 331.5,586.5C 330.833,580.986 330.167,575.319 329.5,569.5C 323.461,565.141 317.795,560.307 312.5,555C 309.832,554.433 307.166,553.933 304.5,553.5C 304.5,555.5 304.5,557.5 304.5,559.5C 308.995,559.493 313.162,560.493 317,562.5C 317.802,567.419 317.635,572.252 316.5,577C 312.577,577.793 308.744,577.626 305,576.5C 304.505,578.473 304.338,580.473 304.5,582.5C 308.142,583.08 311.809,583.58 315.5,584C 316,584.5 316.5,585 317,585.5C 317.667,590.167 317.667,594.833 317,599.5C 316.5,600 316,600.5 315.5,601C 311.83,601.279 308.163,601.112 304.5,600.5C 304.5,602.5 304.5,604.5 304.5,606.5C 305.791,606.263 306.791,606.596 307.5,607.5C 306.244,607.461 305.244,607.961 304.5,609C 305.833,609.667 305.833,610.333 304.5,611C 305.858,611.934 307.192,612.768 308.5,613.5C 305.216,613.277 302.049,612.61 299,611.5C 298.333,605.833 298.333,600.167 299,594.5C 303.072,593.949 307.239,593.949 311.5,594.5C 311.5,592.833 311.5,591.167 311.5,589.5C 307.44,589.515 303.44,589.015 299.5,588C 298.167,582.333 298.167,576.667 299.5,571C 303.51,570.643 307.51,570.81 311.5,571.5C 311.739,569.533 311.406,567.699 310.5,566C 307.167,565.667 303.833,565.333 300.5,565C 300,564.5 299.5,564 299,563.5C 298.333,558.5 298.333,553.5 299,548.5C 299.5,548 300,547.5 300.5,547C 304.109,547.238 307.775,547.405 311.5,547.5C 311.5,545.833 311.5,544.167 311.5,542.5C 307.277,541.389 303.277,539.722 299.5,537.5C 299.198,534.941 299.532,532.607 300.5,530.5C 301.497,530.53 302.164,530.03 302.5,529C 301.596,524.889 301.263,520.722 301.5,516.5C 300.167,516.5 298.833,516.5 297.5,516.5C 298.452,514.888 298.786,513.388 298.5,512C 301.036,511.814 303.369,511.314 305.5,510.5C 331.767,503.961 343.101,487.294 339.5,460.5C 339.185,456.629 339.518,452.962 340.5,449.5 Z"/></g>
<g><path style="opacity:1" fill="#c9c9c9" d="M 502.5,564.5 C 508.051,563.007 511.051,565.007 511.5,570.5C 511.594,572.912 510.594,574.745 508.5,576C 510.014,577.439 510.347,578.939 509.5,580.5C 508.64,578.069 506.973,576.736 504.5,576.5C 504.762,577.978 504.429,579.311 503.5,580.5C 502.505,575.208 502.172,569.875 502.5,564.5 Z"/></g>
<g><path style="opacity:1" fill="#b6b6b6" d="M 525.5,564.5 C 528.572,564.183 531.572,564.516 534.5,565.5C 532.604,566.466 530.604,566.799 528.5,566.5C 528.5,568.167 528.5,569.833 528.5,571.5C 535.167,572.167 535.167,572.833 528.5,573.5C 528.5,575.167 528.5,576.833 528.5,578.5C 530.75,578.181 532.75,578.681 534.5,580C 531.518,580.498 528.518,580.665 525.5,580.5C 525.5,575.167 525.5,569.833 525.5,564.5 Z"/></g>
<g><path style="opacity:1" fill="#cccccc" d="M 552.5,564.5 C 553.497,564.47 554.164,564.97 554.5,566C 556.423,570.826 557.423,575.659 557.5,580.5C 556.571,579.311 556.238,577.978 556.5,576.5C 554.5,576.5 552.5,576.5 550.5,576.5C 550.5,577.833 550.5,579.167 550.5,580.5C 549.325,580.719 548.325,580.386 547.5,579.5C 549.017,574.422 550.684,569.422 552.5,564.5 Z"/></g>
<g><path style="opacity:1" fill="#cbcbcb" d="M 574.5,564.5 C 574.5,569.5 574.5,574.5 574.5,579.5C 576.5,579.5 578.5,579.5 580.5,579.5C 578.639,580.507 575.972,580.84 572.5,580.5C 571.887,574.729 572.554,569.396 574.5,564.5 Z"/></g>
<g><path style="opacity:1" fill="#595959" d="M 574.5,564.5 C 575.486,568.97 575.819,573.637 575.5,578.5C 577.415,578.216 579.081,578.549 580.5,579.5C 578.5,579.5 576.5,579.5 574.5,579.5C 574.5,574.5 574.5,569.5 574.5,564.5 Z"/></g>
<g><path style="opacity:1" fill="#d4d4d4" d="M 613.5,564.5 C 616.898,564.18 620.232,564.513 623.5,565.5C 622.311,566.429 620.978,566.762 619.5,566.5C 620.103,571.619 619.436,576.285 617.5,580.5C 617.5,575.5 617.5,570.5 617.5,565.5C 615.901,565.768 614.568,565.434 613.5,564.5 Z"/></g>
<g><path style="opacity:1" fill="#a1a1a1" d="M 637.5,564.5 C 638.814,566.915 639.481,569.748 639.5,573C 639.167,575.833 638.833,578.667 638.5,581.5C 637.505,575.872 637.171,570.206 637.5,564.5 Z"/></g>
<g><path style="opacity:1" fill="#cfcfcf" d="M 666.5,580.5 C 666.665,576.818 666.499,573.152 666,569.5C 665.283,570.044 664.783,570.711 664.5,571.5C 662.432,583.309 660.099,583.309 657.5,571.5C 657.013,570.527 656.513,569.527 656,568.5C 655.501,572.486 655.334,576.486 655.5,580.5C 654.512,575.36 654.179,570.026 654.5,564.5C 655.5,564.5 656.5,564.5 657.5,564.5C 658.16,568.313 659.326,571.979 661,575.5C 663.064,572.14 664.231,568.474 664.5,564.5C 665.833,564.5 667.167,564.5 668.5,564.5C 669.113,570.271 668.446,575.604 666.5,580.5 Z"/></g>
<g><path style="opacity:1" fill="#b6b6b6" d="M 682.5,564.5 C 685.572,564.183 688.572,564.516 691.5,565.5C 689.604,566.466 687.604,566.799 685.5,566.5C 685.5,568.167 685.5,569.833 685.5,571.5C 692.167,572.167 692.167,572.833 685.5,573.5C 685.5,575.167 685.5,576.833 685.5,578.5C 687.75,578.181 689.75,578.681 691.5,580C 688.518,580.498 685.518,580.665 682.5,580.5C 682.5,575.167 682.5,569.833 682.5,564.5 Z"/></g>
<g><path style="opacity:1" fill="#cdcdcd" d="M 727.5,564.5 C 728.496,564.414 729.329,564.748 730,565.5C 732.158,570.489 733.325,575.489 733.5,580.5C 730.36,575.205 727.36,575.205 724.5,580.5C 724.167,580 723.833,579.5 723.5,579C 724.949,574.16 726.282,569.327 727.5,564.5 Z"/></g>
<g><path style="opacity:1" fill="#cccccc" d="M 813.5,580.5 C 813.666,576.486 813.499,572.486 813,568.5C 811.961,569.244 811.461,570.244 811.5,571.5C 809.76,582.646 807.427,582.979 804.5,572.5C 804.539,571.244 804.039,570.244 803,569.5C 802.501,573.152 802.335,576.818 802.5,580.5C 800.554,575.604 799.887,570.271 800.5,564.5C 801.822,564.33 802.989,564.663 804,565.5C 804.951,569.027 806.284,572.36 808,575.5C 809.068,572.129 810.235,568.796 811.5,565.5C 812.325,564.614 813.325,564.281 814.5,564.5C 814.821,570.026 814.488,575.36 813.5,580.5 Z"/></g>
<g><path style="opacity:1" fill="#d4d4d4" d="M 833.5,564.5 C 834.497,564.47 835.164,564.97 835.5,566C 837.519,570.704 838.686,575.537 839,580.5C 837.812,579.437 837.312,578.103 837.5,576.5C 833.842,575.68 831.509,577.013 830.5,580.5C 830.167,579.667 829.833,578.833 829.5,578C 831.001,573.513 832.334,569.013 833.5,564.5 Z"/></g>
<g><path style="opacity:1" fill="#cdcdcd" d="M 879.5,564.5 C 882.247,564.187 884.914,564.52 887.5,565.5C 885.604,566.466 883.604,566.799 881.5,566.5C 881.5,568.167 881.5,569.833 881.5,571.5C 888.167,572.167 888.167,572.833 881.5,573.5C 881.5,575.167 881.5,576.833 881.5,578.5C 883.604,578.201 885.604,578.534 887.5,579.5C 884.914,580.48 882.247,580.813 879.5,580.5C 879.5,575.167 879.5,569.833 879.5,564.5 Z"/></g>
<g><path style="opacity:1" fill="#c3c3c3" d="M 948.5,573.5 C 947.539,575.265 947.205,577.265 947.5,579.5C 949.5,579.5 951.5,579.5 953.5,579.5C 951.052,580.473 948.385,580.806 945.5,580.5C 945.5,575.167 945.5,569.833 945.5,564.5C 948.572,564.183 951.572,564.516 954.5,565.5C 952.257,566.474 949.924,566.808 947.5,566.5C 947.5,568.167 947.5,569.833 947.5,571.5C 949.604,571.201 951.604,571.534 953.5,572.5C 951.955,573.452 950.288,573.785 948.5,573.5 Z"/></g>
<g><path style="opacity:1" fill="#dbdbdb" d="M 977.5,564.5 C 977.821,570.026 977.488,575.36 976.5,580.5C 974.68,576.86 972.847,573.193 971,569.5C 970.825,573.211 970.325,576.878 969.5,580.5C 968.167,575.167 968.167,569.833 969.5,564.5C 972.156,567.801 974.322,571.468 976,575.5C 976.177,571.644 976.677,567.977 977.5,564.5 Z"/></g>
<g><path style="opacity:1" fill="#7d7d7d" d="M 977.5,564.5 C 978.816,570.013 978.816,575.68 977.5,581.5C 976.893,581.376 976.56,581.043 976.5,580.5C 977.488,575.36 977.821,570.026 977.5,564.5 Z"/></g>
<g><path style="opacity:1" fill="#cdcdcd" d="M 993.5,564.5 C 996.247,564.187 998.914,564.52 1001.5,565.5C 999.604,566.466 997.604,566.799 995.5,566.5C 995.5,568.167 995.5,569.833 995.5,571.5C 1002.17,572.167 1002.17,572.833 995.5,573.5C 995.5,575.167 995.5,576.833 995.5,578.5C 997.604,578.201 999.604,578.534 1001.5,579.5C 998.914,580.48 996.247,580.813 993.5,580.5C 993.5,575.167 993.5,569.833 993.5,564.5 Z"/></g>
<g><path style="opacity:1" fill="#cacaca" d="M 1016.5,564.5 C 1024.36,563.696 1027.03,567.029 1024.5,574.5C 1023.69,574.808 1023.03,575.308 1022.5,576C 1024.01,577.439 1024.35,578.939 1023.5,580.5C 1022.64,578.069 1020.97,576.736 1018.5,576.5C 1018.76,577.978 1018.43,579.311 1017.5,580.5C 1016.51,575.208 1016.17,569.875 1016.5,564.5 Z"/></g>
<g><path style="opacity:1" fill="#d0d0d0" d="M 1043.5,564.5 C 1044.75,564.577 1045.58,565.244 1046,566.5C 1047.04,570.998 1048.54,575.331 1050.5,579.5C 1048.12,580.462 1047.12,579.462 1047.5,576.5C 1045.5,576.5 1043.5,576.5 1041.5,576.5C 1041.76,577.978 1041.43,579.311 1040.5,580.5C 1040.17,579.667 1039.83,578.833 1039.5,578C 1040.74,573.443 1042.08,568.943 1043.5,564.5 Z"/></g>
<g><path style="opacity:1" fill="#cfcfcf" d="M 1063.5,564.5 C 1068.32,563.89 1070.32,564.223 1069.5,565.5C 1070.11,570.944 1069.44,575.944 1067.5,580.5C 1067.5,575.5 1067.5,570.5 1067.5,565.5C 1065.9,565.768 1064.57,565.434 1063.5,564.5 Z"/></g>
<g><path style="opacity:1" fill="#c6c6c6" d="M 1088.5,564.5 C 1091.71,564.012 1094.54,564.679 1097,566.5C 1097.67,570.167 1097.67,573.833 1097,577.5C 1093.67,582.833 1090.33,582.833 1087,577.5C 1086.12,572.938 1086.62,568.604 1088.5,564.5 Z"/></g>
<g><path style="opacity:1" fill="#cecece" d="M 1112.5,564.5 C 1121.67,564.164 1124.01,568.164 1119.5,576.5C 1120.64,577.891 1120.64,579.224 1119.5,580.5C 1118.64,578.069 1116.97,576.736 1114.5,576.5C 1114.76,577.978 1114.43,579.311 1113.5,580.5C 1112.51,575.208 1112.17,569.875 1112.5,564.5 Z"/></g>
<g><path style="opacity:1" fill="#dadada" d="M 748.5,564.5 C 749.812,566.743 750.478,569.41 750.5,572.5C 750.167,575.167 749.833,577.833 749.5,580.5C 748.505,575.208 748.172,569.875 748.5,564.5 Z"/></g>
<g><path style="opacity:1" fill="#a3a3a3" d="M 784.5,564.5 C 785.812,566.743 786.478,569.41 786.5,572.5C 786.167,575.167 785.833,577.833 785.5,580.5C 784.505,575.208 784.172,569.875 784.5,564.5 Z"/></g>
<g><path style="opacity:1" fill="#242424" d="M 504.5,566.5 C 506.167,566.5 507.833,566.5 509.5,566.5C 509.808,568.924 509.474,571.257 508.5,573.5C 507.264,574.246 505.93,574.579 504.5,574.5C 504.5,571.833 504.5,569.167 504.5,566.5 Z"/></g>
<g><path style="opacity:1" fill="#555555" d="M 613.5,564.5 C 614.568,565.434 615.901,565.768 617.5,565.5C 617.5,570.5 617.5,575.5 617.5,580.5C 616.514,576.03 616.181,571.363 616.5,566.5C 615.022,566.762 613.689,566.429 612.5,565.5C 612.624,564.893 612.957,564.56 613.5,564.5 Z"/></g>
<g><path style="opacity:1" fill="#242424" d="M 1018.5,566.5 C 1020.17,566.5 1021.83,566.5 1023.5,566.5C 1023.81,568.924 1023.47,571.257 1022.5,573.5C 1021.26,574.246 1019.93,574.579 1018.5,574.5C 1018.5,571.833 1018.5,569.167 1018.5,566.5 Z"/></g>
<g><path style="opacity:1" fill="#565656" d="M 1063.5,564.5 C 1064.57,565.434 1065.9,565.768 1067.5,565.5C 1067.5,570.5 1067.5,575.5 1067.5,580.5C 1066.51,576.03 1066.18,571.363 1066.5,566.5C 1065.02,566.762 1063.69,566.429 1062.5,565.5C 1062.62,564.893 1062.96,564.56 1063.5,564.5 Z"/></g>
<g><path style="opacity:1" fill="#1a1a1a" d="M 1089.5,566.5 C 1091.47,566.261 1093.3,566.594 1095,567.5C 1095.67,570.833 1095.67,574.167 1095,577.5C 1093,580.167 1091,580.167 1089,577.5C 1088.42,573.797 1088.59,570.131 1089.5,566.5 Z"/></g>
<g><path style="opacity:1" fill="#1b1b1b" d="M 1114.5,566.5 C 1117.93,565.755 1119.6,567.089 1119.5,570.5C 1119.6,573.911 1117.93,575.245 1114.5,574.5C 1114.5,571.833 1114.5,569.167 1114.5,566.5 Z"/></g>
<g><path style="opacity:1" fill="#7e7e7e" d="M 657.5,571.5 C 656.833,574.5 656.167,577.5 655.5,580.5C 655.334,576.486 655.501,572.486 656,568.5C 656.513,569.527 657.013,570.527 657.5,571.5 Z"/></g>
<g><path style="opacity:1" fill="#7f7f7f" d="M 813.5,580.5 C 812.833,577.5 812.167,574.5 811.5,571.5C 811.461,570.244 811.961,569.244 813,568.5C 813.499,572.486 813.666,576.486 813.5,580.5 Z"/></g>
<g><path style="opacity:1" fill="#333333" d="M 252.5,565.5 C 255.572,565.183 258.572,565.516 261.5,566.5C 260.754,567.736 260.421,569.07 260.5,570.5C 257.833,570.5 255.167,570.5 252.5,570.5C 252.5,568.833 252.5,567.167 252.5,565.5 Z"/></g>
<g><path style="opacity:1" fill="#7e7e7e" d="M 666.5,580.5 C 665.833,577.5 665.167,574.5 664.5,571.5C 664.783,570.711 665.283,570.044 666,569.5C 666.499,573.152 666.665,576.818 666.5,580.5 Z"/></g>
<g><path style="opacity:1" fill="#1f1f1f" d="M 728.5,568.5 C 729.738,570.214 730.405,572.214 730.5,574.5C 729.325,574.719 728.325,574.386 727.5,573.5C 728.309,571.929 728.643,570.262 728.5,568.5 Z"/></g>
<g><path style="opacity:1" fill="#7b7b7b" d="M 804.5,572.5 C 803.833,575.167 803.167,577.833 802.5,580.5C 802.335,576.818 802.501,573.152 803,569.5C 804.039,570.244 804.539,571.244 804.5,572.5 Z"/></g>
<g><path style="opacity:1" fill="#232323" d="M 552.5,569.5 C 553.947,570.622 554.947,572.122 555.5,574C 554.167,574.667 552.833,574.667 551.5,574C 552.38,572.644 552.714,571.144 552.5,569.5 Z"/></g>
<g><path style="opacity:1" fill="#333333" d="M 833.5,568.5 C 835.043,569.736 836.043,571.402 836.5,573.5C 835.167,574.833 833.833,574.833 832.5,573.5C 833.309,571.929 833.643,570.262 833.5,568.5 Z"/></g>
<g><path style="opacity:1" fill="#232323" d="M 1044.5,569.5 C 1045.34,570.641 1046.01,571.974 1046.5,573.5C 1045.68,574.386 1044.68,574.719 1043.5,574.5C 1043.37,572.708 1043.7,571.042 1044.5,569.5 Z"/></g>
<g><path style="opacity:1" fill="#1e1e1e" d="M 252.5,572.5 C 254.833,572.5 257.167,572.5 259.5,572.5C 259.5,574.167 259.5,575.833 259.5,577.5C 257.167,577.5 254.833,577.5 252.5,577.5C 252.5,575.833 252.5,574.167 252.5,572.5 Z"/></g>
<g><path style="opacity:1" fill="#bfbfbf" d="M 594.5,571.5 C 596.604,571.201 598.604,571.534 600.5,572.5C 599.5,572.833 598.5,573.167 597.5,573.5C 595.97,573.36 594.97,572.693 594.5,571.5 Z"/></g>
<g><path style="opacity:1" fill="#d0d0d0" d="M 855.5,564.5 C 857.857,564.337 860.19,564.503 862.5,565C 864.421,566.241 864.754,567.741 863.5,569.5C 861.643,566.494 859.143,565.828 856,567.5C 855.333,570.833 855.333,574.167 856,577.5C 859.836,580.493 862.003,579.493 862.5,574.5C 861.325,574.719 860.325,574.386 859.5,573.5C 861.045,572.548 862.712,572.215 864.5,572.5C 864.768,575.119 864.435,577.619 863.5,580C 860.518,580.498 857.518,580.665 854.5,580.5C 852.854,574.92 853.187,569.587 855.5,564.5 Z"/></g>
<g><path style="opacity:1" fill="#434343" d="M 336.5,574.5 C 341.366,576.521 341.366,577.521 336.5,577.5C 336.5,576.5 336.5,575.5 336.5,574.5 Z"/></g>
<g><path style="opacity:1" fill="#c8c8c8" d="M 922.5,564.5 C 924.857,564.337 927.19,564.503 929.5,565C 930.517,566.049 930.684,567.216 930,568.5C 927.925,566.352 925.592,566.018 923,567.5C 922.211,571.091 922.378,574.591 923.5,578C 926.278,578.923 928.278,578.089 929.5,575.5C 925.89,573.288 926.557,572.288 931.5,572.5C 932.116,580.201 928.783,582.535 921.5,579.5C 919.91,574.266 920.243,569.266 922.5,564.5 Z"/></g>
<g><path style="opacity:1" fill="#717171" d="M 948.5,573.5 C 948.5,575.167 948.5,576.833 948.5,578.5C 950.415,578.216 952.081,578.549 953.5,579.5C 951.5,579.5 949.5,579.5 947.5,579.5C 947.205,577.265 947.539,575.265 948.5,573.5 Z"/></g>
<g><path style="opacity:1" fill="#191919" d="M 252.5,579.5 C 254.5,579.5 256.5,579.5 258.5,579.5C 258.5,580.833 258.5,582.167 258.5,583.5C 256.5,583.5 254.5,583.5 252.5,583.5C 252.5,582.167 252.5,580.833 252.5,579.5 Z"/></g>
<g><path style="opacity:1" fill="#1b1b1b" d="M 345.5,579.5 C 346.574,580.885 347.907,582.051 349.5,583C 345.179,583.499 340.846,583.666 336.5,583.5C 336.5,582.167 336.5,580.833 336.5,579.5C 339.5,579.5 342.5,579.5 345.5,579.5 Z"/></g>
<g><path style="opacity:1" fill="#727273" d="M 345.5,585.5 C 349.042,585.187 352.375,585.521 355.5,586.5C 349.5,586.5 343.5,586.5 337.5,586.5C 337.5,587.5 337.5,588.5 337.5,589.5C 336.566,588.432 336.232,587.099 336.5,585.5C 339.5,585.5 342.5,585.5 345.5,585.5 Z"/></g>
<g><path style="opacity:1" fill="#1a1a1a" d="M 257.5,587.5 C 257.5,588.167 257.5,588.833 257.5,589.5C 255.833,589.5 254.167,589.5 252.5,589.5C 252.5,588.5 252.5,587.5 252.5,586.5C 254.415,586.216 256.081,586.549 257.5,587.5 Z"/></g>
<g><path style="opacity:1" fill="#171717" d="M 355.5,586.5 C 356.683,587.504 358.016,588.338 359.5,589C 352.174,589.5 344.841,589.666 337.5,589.5C 337.5,588.5 337.5,587.5 337.5,586.5C 343.5,586.5 349.5,586.5 355.5,586.5 Z"/></g>
<g><path style="opacity:1" fill="#9c9d9d" d="M 396.5,585.5 C 397.598,589.05 397.598,592.55 396.5,596C 392.312,596.176 388.312,596.676 384.5,597.5C 381.5,597.5 378.5,597.5 375.5,597.5C 376.531,596.751 377.698,596.085 379,595.5C 379.498,592.518 379.665,589.518 379.5,586.5C 385.196,586.553 390.862,586.22 396.5,585.5 Z"/></g>
<g><path style="opacity:1" fill="#b6b6b7" d="M 343.5,572.5 C 351.002,577.144 358.669,581.644 366.5,586C 370.821,586.499 375.154,586.666 379.5,586.5C 379.665,589.518 379.498,592.518 379,595.5C 377.698,596.085 376.531,596.751 375.5,597.5C 366.873,596.744 362.373,600.744 362,609.5C 361.667,616.167 361.333,622.833 361,629.5C 360.578,631.426 359.411,632.426 357.5,632.5C 353.167,632.5 348.833,632.5 344.5,632.5C 345.325,628.575 345.325,624.909 344.5,621.5C 346.415,621.784 348.081,621.451 349.5,620.5C 349.5,619.833 349.5,619.167 349.5,618.5C 349.5,618.167 349.5,617.833 349.5,617.5C 349.5,616.833 349.5,616.167 349.5,615.5C 350.833,614.167 350.833,612.833 349.5,611.5C 343.167,611.5 336.833,611.5 330.5,611.5C 336.653,610.672 342.987,610.172 349.5,610C 342.987,609.828 336.653,609.328 330.5,608.5C 337.167,608.5 343.833,608.5 350.5,608.5C 350.5,607.5 350.5,606.5 350.5,605.5C 344.5,605.5 338.5,605.5 332.5,605.5C 336.312,604.676 340.312,604.176 344.5,604C 340.367,604.094 336.701,603.26 333.5,601.5C 333.833,601.5 334.167,601.5 334.5,601.5C 339.975,602.489 345.642,602.822 351.5,602.5C 351.33,601.178 351.663,600.011 352.5,599C 349.854,598.503 347.187,598.336 344.5,598.5C 344.5,597.833 344.5,597.167 344.5,596.5C 349.221,597.268 353.221,596.101 356.5,593C 350.175,592.5 343.842,592.334 337.5,592.5C 339.969,591.683 342.635,591.183 345.5,591C 342.635,590.817 339.969,590.317 337.5,589.5C 344.841,589.666 352.174,589.5 359.5,589C 358.016,588.338 356.683,587.504 355.5,586.5C 352.375,585.521 349.042,585.187 345.5,585.5C 342.5,584.833 339.5,584.167 336.5,583.5C 340.846,583.666 345.179,583.499 349.5,583C 347.907,582.051 346.574,580.885 345.5,579.5C 345.323,577.349 344.656,575.016 343.5,572.5 Z"/></g>
<g><path style="opacity:1" fill="#212121" d="M 258.5,592.5 C 259.234,593.708 259.567,595.041 259.5,596.5C 257.167,596.5 254.833,596.5 252.5,596.5C 252.5,595.167 252.5,593.833 252.5,592.5C 254.5,592.5 256.5,592.5 258.5,592.5 Z"/></g>
<g><path style="opacity:1" fill="#1f1f1f" d="M 337.5,592.5 C 343.842,592.334 350.175,592.5 356.5,593C 353.221,596.101 349.221,597.268 344.5,596.5C 342.167,596.5 339.833,596.5 337.5,596.5C 337.5,595.167 337.5,593.833 337.5,592.5 Z"/></g>
<g><path style="opacity:1" fill="#a4a4a5" d="M 269.5,522.5 C 268.427,524.653 268.427,526.653 269.5,528.5C 268.071,529.234 267.071,530.401 266.5,532C 268.166,538.998 269.833,545.998 271.5,553C 269.153,564.903 266.486,576.736 263.5,588.5C 267.452,598.777 269.119,609.444 268.5,620.5C 270.527,620.662 272.527,620.495 274.5,620C 273.167,614.333 273.167,608.667 274.5,603C 278.17,602.721 281.837,602.888 285.5,603.5C 285.5,601.5 285.5,599.5 285.5,597.5C 286.634,599.966 286.801,602.633 286,605.5C 284.301,604.594 282.467,604.261 280.5,604.5C 280.5,606.167 280.5,607.833 280.5,609.5C 279.549,610.919 279.216,612.585 279.5,614.5C 281.099,614.232 282.432,614.566 283.5,615.5C 282.711,615.783 282.044,616.283 281.5,617C 281.665,618.117 281.998,619.284 282.5,620.5C 277.88,621.493 273.214,621.827 268.5,621.5C 268.5,625.167 268.5,628.833 268.5,632.5C 263.167,632.5 257.833,632.5 252.5,632.5C 252.5,628.833 252.5,625.167 252.5,621.5C 256.167,621.5 259.833,621.5 263.5,621.5C 263.768,619.901 263.434,618.568 262.5,617.5C 259.167,617.5 255.833,617.5 252.5,617.5C 252.5,616.833 252.5,616.167 252.5,615.5C 255.833,615.5 259.167,615.5 262.5,615.5C 262.5,614.167 262.5,612.833 262.5,611.5C 259.359,610.679 256.025,610.179 252.5,610C 255.817,609.502 259.15,609.335 262.5,609.5C 262.768,607.901 262.434,606.568 261.5,605.5C 258.695,604.681 255.695,604.181 252.5,604C 255.695,603.819 258.695,603.319 261.5,602.5C 261.67,601.178 261.337,600.011 260.5,599C 257.854,598.503 255.187,598.336 252.5,598.5C 252.5,597.833 252.5,597.167 252.5,596.5C 254.833,596.5 257.167,596.5 259.5,596.5C 259.567,595.041 259.234,593.708 258.5,592.5C 256.708,591.691 254.708,591.191 252.5,591C 254.382,590.802 256.048,590.302 257.5,589.5C 257.5,588.833 257.5,588.167 257.5,587.5C 258.043,587.44 258.376,587.107 258.5,586.5C 256.577,585.692 254.577,585.192 252.5,585C 254.708,584.809 256.708,584.309 258.5,583.5C 258.5,582.167 258.5,580.833 258.5,579.5C 256.5,579.5 254.5,579.5 252.5,579.5C 251.494,579.062 251.494,578.396 252.5,577.5C 254.833,577.5 257.167,577.5 259.5,577.5C 259.5,575.833 259.5,574.167 259.5,572.5C 257.167,572.5 254.833,572.5 252.5,572.5C 252.5,571.833 252.5,571.167 252.5,570.5C 255.167,570.5 257.833,570.5 260.5,570.5C 260.421,569.07 260.754,567.736 261.5,566.5C 258.572,565.516 255.572,565.183 252.5,565.5C 255.833,564.833 259.167,564.167 262.5,563.5C 262.539,562.417 262.873,561.417 263.5,560.5C 259.893,559.511 256.226,559.177 252.5,559.5C 251.494,559.062 251.494,558.396 252.5,557.5C 256.5,557.5 260.5,557.5 264.5,557.5C 264.5,556.167 264.5,554.833 264.5,553.5C 260.5,553.5 256.5,553.5 252.5,553.5C 256.232,551.869 260.232,550.869 264.5,550.5C 264.737,549.209 264.404,548.209 263.5,547.5C 261.708,546.691 259.708,546.191 257.5,546C 259.577,545.808 261.577,545.308 263.5,544.5C 263.376,543.893 263.043,543.56 262.5,543.5C 262.5,542.5 262.5,541.5 262.5,540.5C 260.833,540.5 259.167,540.5 257.5,540.5C 257.328,539.508 257.662,538.842 258.5,538.5C 259.5,538.5 260.5,538.5 261.5,538.5C 261.306,534.995 260.306,534.662 258.5,537.5C 257.3,534.302 257.3,530.969 258.5,527.5C 261.481,524.512 265.148,522.846 269.5,522.5 Z"/></g>
<g><path style="opacity:1" fill="#1b1b1b" d="M 252.5,598.5 C 255.187,598.336 257.854,598.503 260.5,599C 261.337,600.011 261.67,601.178 261.5,602.5C 258.5,602.5 255.5,602.5 252.5,602.5C 252.5,601.167 252.5,599.833 252.5,598.5 Z"/></g>
<g><path style="opacity:1" fill="#181818" d="M 344.5,598.5 C 347.187,598.336 349.854,598.503 352.5,599C 351.663,600.011 351.33,601.178 351.5,602.5C 345.642,602.822 339.975,602.489 334.5,601.5C 334.804,600.85 335.137,600.183 335.5,599.5C 338.428,598.516 341.428,598.183 344.5,598.5 Z"/></g>
<g><path style="opacity:1" fill="#181818" d="M 261.5,605.5 C 261.5,606.5 261.5,607.5 261.5,608.5C 258.5,608.5 255.5,608.5 252.5,608.5C 252.5,607.5 252.5,606.5 252.5,605.5C 255.5,605.5 258.5,605.5 261.5,605.5 Z"/></g>
<g><path style="opacity:1" fill="#181818" d="M 332.5,605.5 C 338.5,605.5 344.5,605.5 350.5,605.5C 350.5,606.5 350.5,607.5 350.5,608.5C 343.833,608.5 337.167,608.5 330.5,608.5C 330.427,606.973 331.094,605.973 332.5,605.5 Z"/></g>
<g><path style="opacity:1" fill="#d8d9da" d="M 333.5,601.5 C 336.701,603.26 340.367,604.094 344.5,604C 340.312,604.176 336.312,604.676 332.5,605.5C 331.094,605.973 330.427,606.973 330.5,608.5C 336.653,609.328 342.987,609.828 349.5,610C 342.987,610.172 336.653,610.672 330.5,611.5C 330.5,612.5 330.5,613.5 330.5,614.5C 336.645,615.49 342.978,615.823 349.5,615.5C 349.5,616.167 349.5,616.833 349.5,617.5C 342.833,617.5 336.167,617.5 329.5,617.5C 329.5,618.833 329.5,620.167 329.5,621.5C 334.5,621.5 339.5,621.5 344.5,621.5C 345.325,624.909 345.325,628.575 344.5,632.5C 330.833,632.5 317.167,632.5 303.5,632.5C 303.181,627.637 303.514,622.97 304.5,618.5C 306.833,618.5 309.167,618.5 311.5,618.5C 311.5,616.833 311.5,615.167 311.5,613.5C 310.5,613.5 309.5,613.5 308.5,613.5C 307.192,612.768 305.858,611.934 304.5,611C 305.833,610.333 305.833,609.667 304.5,609C 305.244,607.961 306.244,607.461 307.5,607.5C 311.007,606.994 314.174,607.66 317,609.5C 317.499,613.152 317.665,616.818 317.5,620.5C 319.833,620.5 322.167,620.5 324.5,620.5C 324.334,615.156 324.501,609.823 325,604.5C 329.913,599.444 332.08,593.444 331.5,586.5C 331.323,579.578 331.656,573.245 332.5,567.5C 333.499,578.814 333.832,590.147 333.5,601.5 Z"/></g>
<g><path style="opacity:1" fill="#1f1f1f" d="M 262.5,611.5 C 262.5,612.833 262.5,614.167 262.5,615.5C 259.167,615.5 255.833,615.5 252.5,615.5C 252.5,614.167 252.5,612.833 252.5,611.5C 255.833,611.5 259.167,611.5 262.5,611.5 Z"/></g>
<g><path style="opacity:1" fill="#161716" d="M 330.5,611.5 C 336.833,611.5 343.167,611.5 349.5,611.5C 349.5,612.5 349.5,613.5 349.5,614.5C 343.167,614.5 336.833,614.5 330.5,614.5C 330.5,613.5 330.5,612.5 330.5,611.5 Z"/></g>
<g><path style="opacity:1" fill="#474848" d="M 349.5,611.5 C 350.833,612.833 350.833,614.167 349.5,615.5C 342.978,615.823 336.645,615.49 330.5,614.5C 336.833,614.5 343.167,614.5 349.5,614.5C 349.5,613.5 349.5,612.5 349.5,611.5 Z"/></g>
<g><path style="opacity:1" fill="#202020" d="M 252.5,617.5 C 255.833,617.5 259.167,617.5 262.5,617.5C 262.5,618.5 262.5,619.5 262.5,620.5C 259.167,620.5 255.833,620.5 252.5,620.5C 252.5,619.5 252.5,618.5 252.5,617.5 Z"/></g>
<g><path style="opacity:1" fill="#161716" d="M 349.5,618.5 C 349.5,619.167 349.5,619.833 349.5,620.5C 324.167,619.833 324.167,619.167 349.5,618.5 Z"/></g>
<g><path style="opacity:1" fill="#656565" d="M 349.5,617.5 C 349.5,617.833 349.5,618.167 349.5,618.5C 324.167,619.167 324.167,619.833 349.5,620.5C 348.081,621.451 346.415,621.784 344.5,621.5C 339.5,621.5 334.5,621.5 329.5,621.5C 329.5,620.167 329.5,618.833 329.5,617.5C 336.167,617.5 342.833,617.5 349.5,617.5 Z"/></g>
<g><path style="opacity:1" fill="#b7b7b8" d="M 283.5,615.5 C 286.059,615.198 288.393,615.532 290.5,616.5C 287.891,616.83 286.224,618.33 285.5,621C 286.339,624.728 286.672,628.562 286.5,632.5C 280.5,632.5 274.5,632.5 268.5,632.5C 268.5,628.833 268.5,625.167 268.5,621.5C 273.214,621.827 277.88,621.493 282.5,620.5C 281.998,619.284 281.665,618.117 281.5,617C 282.044,616.283 282.711,615.783 283.5,615.5 Z"/></g>
<g><path style="opacity:1" fill="#c8c9ca" d="M 290.5,616.5 C 291.338,616.842 291.672,617.508 291.5,618.5C 291.5,619.5 291.5,620.5 291.5,621.5C 294.059,621.802 296.393,621.468 298.5,620.5C 298.414,619.504 298.748,618.671 299.5,618C 301.387,617.22 303.054,617.387 304.5,618.5C 303.514,622.97 303.181,627.637 303.5,632.5C 297.833,632.5 292.167,632.5 286.5,632.5C 286.672,628.562 286.339,624.728 285.5,621C 286.224,618.33 287.891,616.83 290.5,616.5 Z"/></g>
<g><path style="opacity:1" fill="#707070" d="M 291.5,618.5 C 293.456,620.148 295.789,620.815 298.5,620.5C 296.393,621.468 294.059,621.802 291.5,621.5C 291.5,620.5 291.5,619.5 291.5,618.5 Z"/></g>
</svg>
